<svg xmlns="http://www.w3.org/2000/svg" width="90" height="24" fill="none"><path fill="#1C1A17" d="M75.778 20.096V13.97c0-.218.178-.396.398-.396h8.483c.22 0 .398-.178.398-.396v-2.572a.397.397 0 00-.398-.396h-8.483a.397.397 0 01-.398-.397v-5.91c0-.22.178-.397.398-.397h13.283c.22 0 .398-.178.398-.396V.396A.397.397 0 0089.459 0H71.976a.397.397 0 00-.398.396v23.207c0 .218.178.396.398.396h17.626c.22 0 .398-.177.398-.396v-2.715a.397.397 0 00-.398-.397H76.175a.397.397 0 01-.398-.396h.001zM23.938 0h-3.406a.397.397 0 00-.398.396v23.207c0 .218.178.396.398.396h15.136c.22 0 .398-.177.398-.396v-2.785a.397.397 0 00-.398-.397H24.732a.397.397 0 01-.397-.396V.396A.397.397 0 0023.937 0zm19.387 0h-3.406a.397.397 0 00-.398.396v23.207c0 .219.178.396.398.396h3.406c.22 0 .397-.177.397-.396V.396A.397.397 0 0043.325 0zM3.207.54l5.177 13.2c.101.26-.09.54-.371.54H1.316a.397.397 0 00-.37.254l-.92 2.356c-.1.26.091.54.371.54H9.51c.165 0 .312.1.371.254l2.348 6.061a.398.398 0 00.37.254h3.681a.396.396 0 00.368-.545L7.17.247A.399.399 0 006.8 0H3.578c-.28 0-.473.28-.371.54zm61.039 16.556l.016 2.945c.001.427-.582.555-.76.166L54.37.232A.398.398 0 0054.008 0h-6.433a.397.397 0 00-.398.396v23.207c0 .218.178.396.398.396h3.118c.22 0 .398-.177.398-.396V4.089c0-.427.585-.552.76-.162l8.93 19.838a.397.397 0 00.362.234h6.583c.22 0 .398-.177.398-.396V.396A.397.397 0 0067.726 0h-3.083a.397.397 0 00-.398.396v16.701h.001z"/></svg>